<mxfile host="app.diagrams.net" modified="2024-03-18T17:27:40.497Z" agent="Mozilla/5.0 (Windows NT 10.0; Win64; x64) AppleWebKit/537.36 (KHTML, like Gecko) Chrome/122.0.0.0 Safari/537.36 Edg/122.0.0.0" version="23.1.6" etag="YkW1f4qoITwv2lM2ZpcL" type="github">
  <diagram name="Page-1" id="jL-Qb3DYKHTJa7Q5D0MK">
    <mxGraphModel>
      <root>
        <mxCell id="0" />
        <mxCell id="1" parent="0" />
      </root>
    </mxGraphModel>
  </diagram>
</mxfile>
